<svg width="188" height="120" viewBox="0 0 188 120" fill="none" xmlns="http://www.w3.org/2000/svg">
<path d="M89.5154 119.448C77.9733 119.806 68.6847 112.001 68.7671 102.02L69.4762 19.5987C69.5641 9.6121 78.9901 1.23037 90.5321 0.87312C102.074 0.515866 111.363 8.32049 111.28 18.3016L110.571 100.723C110.489 110.709 101.057 119.091 89.5154 119.448Z" fill="#E22E6B"/>
<path d="M107.098 109.418C113.303 99.6785 110.445 87.1801 100.711 81.5025L33.1243 42.309C23.3905 36.6314 10.4689 39.9292 4.26367 49.6684C-1.94155 59.4077 0.916481 71.9061 10.6503 77.5837L78.2372 116.783C87.971 122.455 100.893 119.163 107.098 109.418Z" fill="#E22E6B"/>
<path d="M183.374 51.7133L137.382 14.6193C130.242 8.85932 119.613 13.9433 119.613 23.1165V97.3044C119.613 106.478 130.242 111.562 137.382 105.802L183.374 68.7076C188.794 64.3381 188.794 56.0828 183.374 51.7133Z" fill="#843AB5"/>
<path d="M159.773 64.1563C159.207 63.9034 158.801 63.6836 158.372 63.5297C155.47 62.4634 152.639 62.5514 150.012 64.2717C146.582 66.5196 146.588 70.6803 149.99 72.9557C152.189 74.4232 154.612 74.7035 157.146 74.0989C160.746 73.2415 162.379 71.0375 162.186 67.3715C162.175 67.1187 162.197 66.8659 162.197 66.6131C162.197 58.8469 162.197 51.0808 162.197 43.3146C162.197 41.2316 161.807 40.9238 159.779 41.4679C153.387 43.1772 147 44.9195 140.597 46.5904C139.404 46.9036 138.976 47.4698 138.987 48.7064C139.042 54.9941 139.014 61.2817 139.02 67.5749C139.02 68.0476 139.02 68.5258 139.02 69.1468C138.602 68.938 138.415 68.85 138.234 68.7566C138.047 68.6632 137.865 68.5532 137.673 68.4653C134.485 67.0857 131.402 67.2506 128.555 69.2842C125.801 71.2464 125.565 74.7969 128.082 77.0284C130.814 79.4577 133.996 79.716 137.316 78.4354C140.443 77.2263 141.383 74.72 141.35 71.5542C141.279 64.508 141.323 57.4564 141.323 50.4102C141.323 49.9101 141.323 49.4099 141.323 48.8328C147.495 47.1785 153.59 45.5461 159.779 43.8917C159.773 50.7015 159.773 57.352 159.773 64.1563Z" fill="white"/>
<path d="M159.773 64.1564C159.773 57.3576 159.773 50.7017 159.773 43.8863C153.579 45.5462 147.489 47.1731 141.317 48.8274C141.317 49.399 141.317 49.9047 141.317 50.4049C141.317 57.451 141.273 64.5026 141.345 71.5488C141.378 74.7146 140.438 77.2209 137.31 78.4301C133.991 79.7107 130.808 79.4524 128.077 77.023C125.56 74.7861 125.796 71.241 128.549 69.2789C131.402 67.2508 134.48 67.0804 137.668 68.4599C137.86 68.5424 138.041 68.6523 138.228 68.7512C138.41 68.8447 138.591 68.9326 139.014 69.1415C139.014 68.5149 139.014 68.0422 139.014 67.5695C139.014 61.2819 139.036 54.9887 138.981 48.701C138.97 47.4644 139.399 46.8983 140.592 46.585C146.995 44.9141 153.381 43.1663 159.773 41.4625C161.802 40.9184 162.192 41.2262 162.192 43.3092C162.192 51.0754 162.192 58.8415 162.192 66.6077C162.192 66.8605 162.17 67.1133 162.181 67.3662C162.379 71.0321 160.741 73.2361 157.141 74.0935C154.607 74.6981 152.183 74.4178 149.985 72.9503C146.583 70.6749 146.577 66.5143 150.007 64.2663C152.634 62.546 155.464 62.4581 158.366 63.5243C158.801 63.6837 159.207 63.8981 159.773 64.1564Z" fill="white"/>
</svg>
