<svg width="70" height="69" viewBox="0 0 70 69" fill="none" xmlns="http://www.w3.org/2000/svg">
<rect x="0.930176" y="0.42041" width="68.4799" height="68.4799" rx="34.24" fill="white"/>
<path d="M38.9886 27.0446C38.158 28.0396 36.829 28.8243 35.5 28.7122C35.3339 27.3669 35.9845 25.9376 36.7459 25.0548C37.5765 24.0318 39.0301 23.3031 40.2068 23.2471C40.3452 24.6484 39.8053 26.0217 38.9886 27.0446Z" fill="black"/>
<path d="M40.193 28.9785C38.2688 28.8664 36.6214 30.0855 35.7077 30.0855C34.7802 30.0855 33.3821 29.0345 31.8593 29.0626C29.8797 29.0906 28.0385 30.2256 27.0279 32.0333C24.9514 35.6488 26.488 41.0018 28.4953 43.9446C29.4782 45.4019 30.6549 46.9994 32.2054 46.9434C33.6728 46.8873 34.2542 45.9765 36.0261 45.9765C37.8119 45.9765 38.3242 46.9434 39.8746 46.9154C41.4805 46.8873 42.491 45.458 43.4739 44.0006C44.5952 42.3471 45.0521 40.7355 45.0798 40.6515C45.0521 40.6234 41.9788 39.4323 41.9511 35.8449C41.9235 32.8461 44.3737 31.4168 44.4845 31.3327C43.1001 29.2587 40.9406 29.0345 40.193 28.9785Z" fill="black"/>
</svg>
