<svg width="69" height="69" viewBox="0 0 69 69" fill="none" xmlns="http://www.w3.org/2000/svg">
<rect x="0.330322" y="0.42041" width="68.4799" height="68.4799" rx="34.24" fill="#F14336"/>
<g clip-path="url(#clip0_1_804)">
<path d="M28.2158 37.0416L27.4213 40.0078L24.5172 40.0693C23.6493 38.4595 23.157 36.6177 23.157 34.6605C23.157 32.7679 23.6173 30.9831 24.4331 29.4116H24.4338L27.0192 29.8856L28.1518 32.4556C27.9148 33.1467 27.7856 33.8885 27.7856 34.6605C27.7857 35.4983 27.9374 36.301 28.2158 37.0416Z" fill="white"/>
<path d="M45.7843 32.5283C45.9153 33.2187 45.9837 33.9318 45.9837 34.6605C45.9837 35.4776 45.8978 36.2747 45.7341 37.0435C45.1785 39.6598 43.7268 41.9443 41.7156 43.561L41.715 43.5604L38.4585 43.3942L37.9976 40.517C39.332 39.7344 40.3749 38.5097 40.9243 37.0435H34.8213V32.5283H41.0133H45.7843Z" fill="white"/>
<path d="M41.7148 43.5603L41.7154 43.5609C39.7595 45.133 37.2749 46.0737 34.5702 46.0737C30.2237 46.0737 26.4448 43.6443 24.5171 40.0692L28.2158 37.0415C29.1796 39.6139 31.6611 41.445 34.5702 41.445C35.8206 41.445 36.9921 41.107 37.9973 40.5169L41.7148 43.5603Z" fill="white"/>
<path d="M41.8554 25.8746L38.1579 28.9017C37.1176 28.2514 35.8878 27.8757 34.5703 27.8757C31.5953 27.8757 29.0674 29.7909 28.1518 32.4555L24.4337 29.4115H24.4331C26.3326 25.7492 30.1592 23.2471 34.5703 23.2471C37.3396 23.2471 39.8787 24.2335 41.8554 25.8746Z" fill="white"/>
</g>
<defs>
<clipPath id="clip0_1_804">
<rect width="22.8266" height="22.8266" fill="white" transform="translate(23.157 23.2471)"/>
</clipPath>
</defs>
</svg>
