<svg width="22" height="17" viewBox="0 0 22 17" fill="none" xmlns="http://www.w3.org/2000/svg">
<g clip-path="url(#clip0_1_790)">
<path d="M0.787788 3.09507L11.0559 8.41863L21.3241 3.09507C21.286 2.41657 20.9993 1.77882 20.5226 1.31242C20.0459 0.846033 19.4153 0.586301 18.7599 0.586426H3.35193C2.69656 0.586301 2.06594 0.846033 1.58923 1.31242C1.11252 1.77882 0.825799 2.41657 0.787788 3.09507Z" fill="white"/>
<path d="M21.3279 6.06977L11.0559 11.396L0.783936 6.06977V13.902C0.783936 14.6083 1.05449 15.2856 1.53608 15.7851C2.01768 16.2845 2.67086 16.5651 3.35193 16.5651H18.7599C19.441 16.5651 20.0942 16.2845 20.5758 15.7851C21.0574 15.2856 21.3279 14.6083 21.3279 13.902V6.06977Z" fill="white"/>
</g>
<defs>
<clipPath id="clip0_1_790">
<rect width="20.544" height="15.9786" fill="white" transform="translate(0.783936 0.586426)"/>
</clipPath>
</defs>
</svg>
