<svg width="17" height="19" viewBox="0 0 17 19" fill="none" xmlns="http://www.w3.org/2000/svg">
<path fill-rule="evenodd" clip-rule="evenodd" d="M2.34931 8.32721V6.04455C2.34931 2.89285 4.90427 0.337891 8.05597 0.337891C11.2077 0.337891 13.7626 2.89285 13.7626 6.04455V8.32721C15.0233 8.32721 16.0453 9.3492 16.0453 10.6099V16.3165C16.0453 17.5772 15.0233 18.5992 13.7626 18.5992H2.34931C1.08863 18.5992 0.0666504 17.5772 0.0666504 16.3165V10.6099C0.0666504 9.3492 1.08863 8.32721 2.34931 8.32721ZM11.48 6.04455V8.32721H4.63198V6.04455C4.63198 4.15353 6.16495 2.62055 8.05597 2.62055C9.94699 2.62055 11.48 4.15353 11.48 6.04455Z" fill="white"/>
</svg>
